# xmcd CD database file
#
# Track frame offsets:
#	225
#	21225
#	38269
#	58694
#	77274
#	95026
#	109943
#	125617
#	139687
#	160010
#	173461
#	194605
#
# Disc length: 2822 seconds
#
# Revision: 1
# Processed by: cddbd v1.5.1PL2 Copyright (c) Steve Scherf et al.
# Submitted via: CDex 1.60beta1-cs1
#
DISCID=930b030c
DTITLE=Cesar and marcos paulo - Tropeço do coração
DYEAR=1998
DGENRE=Country
TTITLE0=tropeços do coração
TTITLE1=sozinho de mais
TTITLE2=sem rumo
TTITLE3=amando duas mulheres
TTITLE4=amando duas pessoas
TTITLE5=mil motivos, mil razões
TTITLE6=amor em segredo
TTITLE7=rabo preso com ninguém
TTITLE8=eu não deixei de te amar
TTITLE9=noite de angústia
TTITLE10=coração partido
TTITLE11=me perdoa
EXTD=YEAR: 1998
EXTT0=
EXTT1=
EXTT2=
EXTT3=
EXTT4=
EXTT5=
EXTT6=
EXTT7=
EXTT8=
EXTT9=
EXTT10=
EXTT11=
PLAYORDER=
